<svg width="58" height="18" viewBox="0 0 58 18" fill="none" xmlns="http://www.w3.org/2000/svg">
<path d="M9.14856 8.25C10.216 8.25 10.7497 8.24999 11.1574 8.45435C11.516 8.63411 11.8076 8.92098 11.9904 9.27378C12.1981 9.67486 12.1981 10.1999 12.1981 11.25C12.1981 12.3001 12.1981 12.8251 11.9904 13.2262C11.8076 13.579 11.516 13.8659 11.1574 14.0457C10.7497 14.25 10.216 14.25 9.14856 14.25H8.00499C6.96882 14.25 6.12574 15.0634 6.09964 16.0766L6.09845 16.1734C6.07234 17.1866 5.22926 18 4.19309 18H3.04952C1.9821 18 1.44838 18 1.04068 17.7957C0.682051 17.6159 0.390449 17.329 0.207719 16.9762C-9.05206e-06 16.5751 0 16.0501 0 15C0 13.9499 -9.05206e-06 13.4249 0.207719 13.0238C0.390449 12.671 0.682051 12.3841 1.04068 12.2043C1.44838 12 1.9821 12 3.04952 12H4.19309C5.22926 12 6.07234 11.1866 6.09845 10.1734L6.09964 10.0766C6.12574 9.06343 6.96882 8.25 8.00499 8.25H9.14856Z" fill="white"/>
<path d="M37.7942 11.385C37.7942 12.27 37.9009 12.96 38.1144 13.455C38.3279 13.95 38.6176 14.295 38.9835 14.49C39.3647 14.685 39.7993 14.7825 40.2872 14.7825C41.1563 14.7975 41.8272 14.52 42.2999 13.95C42.7726 13.38 43.0089 12.5625 43.0089 11.4975V5.625H45.5476V16.875H43.1461L43.0317 15.2775C42.6658 15.8775 42.1855 16.3425 41.5909 16.6725C41.0115 16.9875 40.3406 17.145 39.5782 17.145C38.6786 17.145 37.901 16.965 37.2453 16.605C36.6049 16.245 36.1094 15.6825 35.7587 14.9175C35.408 14.1525 35.2326 13.17 35.2326 11.97V5.625H37.7942V11.385Z" fill="white"/>
<path d="M28.8485 3.50999H21.5525V7.91997H27.7963V10.305H21.5525V16.875H18.8994V1.125H28.8485V3.50999Z" fill="white"/>
<path d="M33.0981 16.875H30.5365V1.125H33.0981V16.875Z" fill="white"/>
<path d="M52.3965 9L54.7066 5.625H57.7256L53.8146 11.07L58 16.875H54.9581L52.3965 13.095L49.8121 16.875H46.7473L51.0014 11.0475L47.0447 5.625H50.0637L52.3965 9Z" fill="white"/>
<path d="M9.14856 0C10.216 0 10.7497 -8.91834e-06 11.1574 0.204346C11.516 0.384108 11.8076 0.670975 11.9904 1.02378C12.1981 1.42486 12.1981 1.94992 12.1981 3C12.1981 4.05008 12.1981 4.57514 11.9904 4.97622C11.8076 5.32902 11.516 5.61589 11.1574 5.79565C10.7497 6.00001 10.216 6 9.14856 6H3.04952C1.9821 6 1.44838 6.00001 1.04068 5.79565C0.682051 5.61589 0.390449 5.32902 0.207719 4.97622C-9.05206e-06 4.57514 0 4.05008 0 3C0 1.94992 -9.05206e-06 1.42486 0.207719 1.02378C0.390449 0.670975 0.682051 0.384108 1.04068 0.204346C1.44838 -8.91834e-06 1.9821 0 3.04952 0H9.14856Z" fill="white"/>
</svg>
